<?xml version="1.0" encoding="utf-8"?>
<!-- Generator: Adobe Illustrator 16.0.0, SVG Export Plug-In . SVG Version: 6.00 Build 0)  -->
<!DOCTYPE svg PUBLIC "-//W3C//DTD SVG 1.1//EN" "http://www.w3.org/Graphics/SVG/1.1/DTD/svg11.dtd">
<svg version="1.1" id="Layer_1" xmlns="http://www.w3.org/2000/svg" xmlns:xlink="http://www.w3.org/1999/xlink" x="0px" y="0px"
	 width="130.5px" height="51.18px" viewBox="0 0 130.5 51.18" enable-background="new 0 0 130.5 51.18" xml:space="preserve">
<path fill="#FFFFFF" d="M0,50.04V6.84h4.08v18.54h25.56V6.84h4.08v43.2h-4.08V28.86H4.08v21.18H0z"/>
<path fill="#FFFFFF" d="M41.699,28.5c0-3.159,0.429-6.12,1.29-8.88c0.859-2.76,2.13-5.169,3.81-7.23c1.68-2.06,3.76-3.69,6.24-4.89
	c2.479-1.2,5.34-1.8,8.58-1.8c3.36,0,6.309,0.59,8.85,1.77c2.54,1.18,4.659,2.8,6.36,4.86c1.7,2.061,2.979,4.48,3.84,7.26
	c0.86,2.781,1.29,5.751,1.29,8.91c0,3.12-0.43,6.051-1.29,8.79c-0.86,2.74-2.13,5.14-3.81,7.2c-1.68,2.061-3.78,3.69-6.3,4.89
	c-2.52,1.2-5.44,1.8-8.76,1.8c-3.32,0-6.24-0.6-8.76-1.8c-2.52-1.2-4.62-2.829-6.3-4.89c-1.68-2.06-2.94-4.46-3.78-7.2
	C42.119,34.551,41.699,31.62,41.699,28.5z M61.859,47.7c2.799,0,5.21-0.53,7.23-1.59c2.02-1.059,3.68-2.469,4.98-4.23
	c1.3-1.76,2.26-3.799,2.88-6.12c0.62-2.32,0.93-4.74,0.93-7.26c0-3-0.37-5.689-1.11-8.07c-0.741-2.379-1.811-4.41-3.21-6.09
	c-1.401-1.68-3.101-2.959-5.1-3.84c-2-0.879-4.24-1.32-6.72-1.32c-2.76,0-5.151,0.54-7.17,1.62c-2.02,1.08-3.681,2.511-4.98,4.29
	c-1.3,1.78-2.26,3.831-2.88,6.15c-0.621,2.32-0.93,4.74-0.93,7.26c0,2.561,0.31,5,0.93,7.32c0.62,2.32,1.58,4.36,2.88,6.12
	c1.299,1.761,2.96,3.161,4.98,4.2C56.588,47.181,59.019,47.7,61.859,47.7z M52.919,0h17.76v2.7h-17.76V0z"/>
<path fill="#FFFFFF" d="M89.879,50.04V6.84h6.24l14.16,38.1h0.12l13.92-38.1h6.18v43.2h-4.08V11.52h-0.121l-14.159,38.52h-3.84
	l-14.22-38.52h-0.12v38.52H89.879z"/>
</svg>
