<?xml version="1.0" encoding="utf-8"?>
<!-- Generator: Adobe Illustrator 16.0.0, SVG Export Plug-In . SVG Version: 6.00 Build 0)  -->
<!DOCTYPE svg PUBLIC "-//W3C//DTD SVG 1.1//EN" "http://www.w3.org/Graphics/SVG/1.1/DTD/svg11.dtd">
<svg version="1.1" id="Layer_1" xmlns="http://www.w3.org/2000/svg" xmlns:xlink="http://www.w3.org/1999/xlink" x="0px" y="0px"
	 width="320.73px" height="277.809px" viewBox="0 0 320.73 277.809" enable-background="new 0 0 320.73 277.809"
	 xml:space="preserve">
<path fill-rule="evenodd" clip-rule="evenodd" fill="#FFFFFF" d="M309.901,268.91c-6.777-3.816-12.894-7.189-18.943-10.68
	c-27.186-15.681-54.301-31.484-81.58-47c-3.987-2.265-5.226-4.928-5.162-9.266c0.209-14.205,0.26-28.414-0.106-42.608
	c-0.062-2.408-1.894-5.723-3.922-6.971c-11.889-7.334-24-14.326-36.255-21.027c-1.929-1.055-5.473-0.929-7.445,0.153
	c-12.062,6.61-23.826,13.767-35.831,20.48c-3.283,1.836-4.333,4.086-4.293,7.702c0.162,14.417,0.268,28.843-0.121,43.249
	c-0.07,2.628-1.871,6.346-4.018,7.602c-31.896,18.694-63.982,37.065-96.041,55.481c-1.439,0.828-3.044,1.367-5.42,2.414
	c-0.161-2.664-0.386-4.668-0.386-6.672c-0.018-53.801,0.035-107.604-0.104-161.406c-0.01-4.594,1.216-7.353,5.407-9.743
	c46.5-26.502,92.914-53.157,139.225-79.988c4.144-2.401,7.006-2.245,11.057,0.1c46.323,26.811,92.75,53.441,139.217,80.005
	c3.526,2.017,5.289,4.151,5.276,8.512c-0.148,54.663-0.093,109.324-0.111,163.99C310.345,264.691,310.126,266.146,309.901,268.91z
	 M304.708,259.265c0.116-2.189,0.295-4.057,0.295-5.93c0.016-49.909-0.078-99.816,0.146-149.726
	c0.022-5.318-1.871-8.041-6.282-10.55c-44.817-25.511-89.494-51.264-134.362-76.684c-2.191-1.242-6.365-1.082-8.617,0.194
	C111.209,41.887,66.711,67.529,22.065,92.904c-4.663,2.649-6.52,5.579-6.494,11.093c0.231,49.477,0.131,98.956,0.146,148.434
	c0,2.045,0.172,4.088,0.271,6.268c12.759-3.572,14.787-6.137,14.787-18.102c0-43.027,0.061-86.051-0.089-129.076
	c-0.015-4.618,1.294-7.301,5.485-9.685C75.592,79.433,114.9,56.835,154.129,34.099c4.404-2.552,7.751-2.775,12.283-0.127
	c39.155,22.873,78.401,45.585,117.784,68.061c4.676,2.67,5.868,5.738,5.849,10.747c-0.172,41.949,0.373,83.909-0.414,125.842
	c-0.209,11.146,3.395,17.309,13.445,20.504C303.271,259.185,303.487,259.166,304.708,259.265z M36.33,247.515
	c12.916-4.34,13.622-5.289,13.622-17.312c0.003-35.499,0.045-70.994-0.051-106.493c-0.013-4.221,0.954-7.011,5.024-9.327
	c33.438-19.01,66.762-38.232,100.001-57.593c3.717-2.165,6.537-1.951,10.022,0.068c32.908,19.068,65.824,38.127,98.881,56.94
	c4.55,2.59,6.18,5.603,6.154,10.739c-0.185,35.065-0.096,70.134-0.096,105.202c0,11.721,1.854,14.051,14.279,17.51
	c0.194-1.689,0.537-3.309,0.54-4.93c0.025-42.812-0.061-85.625,0.124-128.438c0.02-4.759-2.301-6.74-5.887-8.802
	c-37.64-21.632-75.249-43.323-112.763-65.173c-4.298-2.503-7.647-2.308-11.866,0.147c-37.322,21.742-74.71,43.377-112.218,64.797
	c-4.502,2.571-6.235,5.383-6.212,10.571c0.193,41.95,0.104,83.902,0.118,125.855C36.005,243.179,36.196,245.076,36.33,247.515z
	 M56.01,235.952c14.073-4.741,14.999-5.968,14.999-19.001c0.003-27.33,0.099-54.654-0.096-81.977
	c-0.032-4.64,1.345-7.371,5.485-9.711c26.387-14.907,52.659-30.013,78.851-45.26c3.587-2.087,6.169-2.354,9.917-0.165
	c26.169,15.281,52.467,30.347,78.83,45.292c4.22,2.391,5.892,5.127,5.847,10.146c-0.268,29.044-0.189,58.094-0.025,87.139
	c0.016,2.488,0.771,5.851,2.47,7.266c3.328,2.777,7.565,4.467,12.043,6.951c0.327-2.467,0.683-3.893,0.686-5.319
	c0.027-35.501,0.131-71.002-0.202-106.499c-0.024-2.662-2.582-6.357-5.011-7.778c-31.723-18.558-63.598-36.858-95.588-54.949
	c-2.03-1.149-5.886-1.021-7.962,0.155c-31.799,17.996-63.407,36.323-95.155,54.406c-4.054,2.308-5.544,5.073-5.519,9.752
	c0.184,34.425,0.093,68.852,0.113,103.275C55.692,231.578,55.879,233.48,56.01,235.952z M75.299,224.567
	c12.696-3.374,14.857-6.071,14.86-17.856c0-20.222-0.121-40.444,0.156-60.664c0.033-2.55,1.442-6.265,3.405-7.424
	c20.537-12.129,41.251-23.966,62.129-35.501c2.209-1.221,6.328-1.015,8.61,0.246c20.124,11.119,39.99,22.7,60.038,33.953
	c3.667,2.059,4.966,4.542,4.926,8.739c-0.212,20.22-0.096,40.444-0.096,60.667c0,11.768,2.454,14.723,14.605,17.528
	c0.212-0.58,0.612-1.164,0.612-1.75c0.076-29.042,0.215-58.083-0.032-87.122c-0.018-2.115-2.371-4.994-4.416-6.19
	c-24.482-14.327-49.176-28.288-73.641-42.641c-4.534-2.661-7.952-2.471-12.383,0.121c-24.296,14.218-48.697,28.26-73.227,42.07
	c-4.076,2.295-5.715,4.664-5.67,9.437c0.252,26.03,0.121,52.063,0.121,78.097C75.299,218.98,75.299,221.687,75.299,224.567z
	 M95.95,212.92c13.221-3.778,14.928-5.899,14.928-17.91c0-12.053,0.149-24.106-0.073-36.154c-0.08-4.545,1.15-7.46,5.413-9.816
	c13.352-7.387,26.333-15.443,39.705-22.791c2.272-1.25,6.365-1.395,8.59-0.174c13.562,7.445,26.725,15.616,40.25,23.132
	c4.056,2.252,5.198,5.031,5.138,9.312c-0.174,12.265-0.058,24.532-0.058,36.8c0,11.453,2.998,15.016,14.918,17.354
	c0-21.998,0.101-43.925-0.18-65.852c-0.024-1.932-2.139-4.547-3.992-5.634c-18.54-10.876-37.152-21.634-55.976-32.016
	c-2.274-1.254-6.477-1.144-8.791,0.135c-18.626,10.286-36.967,21.091-55.524,31.507c-3.273,1.838-4.51,3.904-4.424,7.604
	c0.228,9.677,0.076,19.367,0.076,29.052C95.95,189.225,95.95,200.983,95.95,212.92z"/>
</svg>
